<mxfile host="app.diagrams.net" agent="Mozilla/5.0 (Windows NT 10.0; Win64; x64) AppleWebKit/537.36 (KHTML, like Gecko) Chrome/137.0.0.0 Safari/537.36" version="27.1.1">
  <diagram name="Página-1" id="R9iQ-9v3TDTBuCwBcNS5">
    <mxGraphModel dx="2755" dy="1048" grid="1" gridSize="10" guides="1" tooltips="1" connect="1" arrows="1" fold="1" page="1" pageScale="1" pageWidth="827" pageHeight="1169" math="0" shadow="0">
      <root>
        <mxCell id="0" />
        <mxCell id="1" parent="0" />
        <mxCell id="zsJo3msOnrnyvSqpCblY-70" value="" style="whiteSpace=wrap;html=1;aspect=fixed;" vertex="1" parent="1">
          <mxGeometry x="190" y="10" width="920" height="920" as="geometry" />
        </mxCell>
        <mxCell id="zsJo3msOnrnyvSqpCblY-9" style="rounded=0;orthogonalLoop=1;jettySize=auto;html=1;exitX=0.5;exitY=0.5;exitDx=0;exitDy=0;exitPerimeter=0;entryX=0;entryY=0.5;entryDx=0;entryDy=0;endArrow=none;startFill=0;" edge="1" parent="1" source="zsJo3msOnrnyvSqpCblY-1" target="zsJo3msOnrnyvSqpCblY-5">
          <mxGeometry relative="1" as="geometry" />
        </mxCell>
        <mxCell id="zsJo3msOnrnyvSqpCblY-15" style="rounded=0;orthogonalLoop=1;jettySize=auto;html=1;exitX=0.5;exitY=0.5;exitDx=0;exitDy=0;exitPerimeter=0;entryX=0;entryY=0.5;entryDx=0;entryDy=0;endArrow=none;startFill=0;" edge="1" parent="1" source="zsJo3msOnrnyvSqpCblY-1" target="zsJo3msOnrnyvSqpCblY-13">
          <mxGeometry relative="1" as="geometry" />
        </mxCell>
        <mxCell id="zsJo3msOnrnyvSqpCblY-45" style="rounded=0;orthogonalLoop=1;jettySize=auto;html=1;exitX=0.5;exitY=0.5;exitDx=0;exitDy=0;exitPerimeter=0;endArrow=none;startFill=0;" edge="1" parent="1" source="zsJo3msOnrnyvSqpCblY-1">
          <mxGeometry relative="1" as="geometry">
            <mxPoint x="200" y="800" as="targetPoint" />
          </mxGeometry>
        </mxCell>
        <mxCell id="zsJo3msOnrnyvSqpCblY-56" style="rounded=0;orthogonalLoop=1;jettySize=auto;html=1;exitX=0.5;exitY=0.5;exitDx=0;exitDy=0;exitPerimeter=0;entryX=0;entryY=0.5;entryDx=0;entryDy=0;endArrow=none;startFill=0;" edge="1" parent="1" source="zsJo3msOnrnyvSqpCblY-1" target="zsJo3msOnrnyvSqpCblY-55">
          <mxGeometry relative="1" as="geometry" />
        </mxCell>
        <mxCell id="zsJo3msOnrnyvSqpCblY-1" value="Administrador" style="shape=umlActor;verticalLabelPosition=bottom;verticalAlign=top;html=1;outlineConnect=0;" vertex="1" parent="1">
          <mxGeometry x="-10" y="170" width="30" height="60" as="geometry" />
        </mxCell>
        <mxCell id="zsJo3msOnrnyvSqpCblY-12" style="rounded=0;orthogonalLoop=1;jettySize=auto;html=1;exitX=0.5;exitY=0.5;exitDx=0;exitDy=0;exitPerimeter=0;entryX=0;entryY=0.5;entryDx=0;entryDy=0;endArrow=none;startFill=0;" edge="1" parent="1" source="zsJo3msOnrnyvSqpCblY-2" target="zsJo3msOnrnyvSqpCblY-6">
          <mxGeometry relative="1" as="geometry" />
        </mxCell>
        <mxCell id="zsJo3msOnrnyvSqpCblY-17" style="rounded=0;orthogonalLoop=1;jettySize=auto;html=1;exitX=0.5;exitY=0.5;exitDx=0;exitDy=0;exitPerimeter=0;entryX=0;entryY=0.5;entryDx=0;entryDy=0;endArrow=none;startFill=0;" edge="1" parent="1" source="zsJo3msOnrnyvSqpCblY-2" target="zsJo3msOnrnyvSqpCblY-14">
          <mxGeometry relative="1" as="geometry" />
        </mxCell>
        <mxCell id="zsJo3msOnrnyvSqpCblY-44" style="rounded=0;orthogonalLoop=1;jettySize=auto;html=1;exitX=0.5;exitY=0.5;exitDx=0;exitDy=0;exitPerimeter=0;entryX=0;entryY=0.5;entryDx=0;entryDy=0;endArrow=none;startFill=0;" edge="1" parent="1" source="zsJo3msOnrnyvSqpCblY-2" target="zsJo3msOnrnyvSqpCblY-43">
          <mxGeometry relative="1" as="geometry" />
        </mxCell>
        <mxCell id="zsJo3msOnrnyvSqpCblY-2" value="Funcionário garçom" style="shape=umlActor;verticalLabelPosition=bottom;verticalAlign=top;html=1;outlineConnect=0;" vertex="1" parent="1">
          <mxGeometry x="-10" y="660" width="30" height="60" as="geometry" />
        </mxCell>
        <mxCell id="zsJo3msOnrnyvSqpCblY-11" style="rounded=0;orthogonalLoop=1;jettySize=auto;html=1;exitX=0.5;exitY=0.5;exitDx=0;exitDy=0;exitPerimeter=0;entryX=0;entryY=0.5;entryDx=0;entryDy=0;endArrow=none;startFill=0;" edge="1" parent="1" source="zsJo3msOnrnyvSqpCblY-3" target="zsJo3msOnrnyvSqpCblY-6">
          <mxGeometry relative="1" as="geometry" />
        </mxCell>
        <mxCell id="zsJo3msOnrnyvSqpCblY-16" style="rounded=0;orthogonalLoop=1;jettySize=auto;html=1;exitX=0.5;exitY=0.5;exitDx=0;exitDy=0;exitPerimeter=0;entryX=0;entryY=0.5;entryDx=0;entryDy=0;endArrow=none;startFill=0;" edge="1" parent="1" source="zsJo3msOnrnyvSqpCblY-3" target="zsJo3msOnrnyvSqpCblY-14">
          <mxGeometry relative="1" as="geometry" />
        </mxCell>
        <mxCell id="zsJo3msOnrnyvSqpCblY-30" style="rounded=0;orthogonalLoop=1;jettySize=auto;html=1;exitX=0.5;exitY=0.5;exitDx=0;exitDy=0;exitPerimeter=0;entryX=0;entryY=0.5;entryDx=0;entryDy=0;endArrow=none;startFill=0;" edge="1" parent="1" source="zsJo3msOnrnyvSqpCblY-3" target="zsJo3msOnrnyvSqpCblY-27">
          <mxGeometry relative="1" as="geometry" />
        </mxCell>
        <mxCell id="zsJo3msOnrnyvSqpCblY-3" value="Funcionário cozinha" style="shape=umlActor;verticalLabelPosition=bottom;verticalAlign=top;html=1;outlineConnect=0;" vertex="1" parent="1">
          <mxGeometry x="-10" y="520" width="30" height="60" as="geometry" />
        </mxCell>
        <mxCell id="zsJo3msOnrnyvSqpCblY-18" style="edgeStyle=orthogonalEdgeStyle;rounded=0;orthogonalLoop=1;jettySize=auto;html=1;exitX=0.5;exitY=1;exitDx=0;exitDy=0;entryX=0.5;entryY=0;entryDx=0;entryDy=0;dashed=1;" edge="1" parent="1" source="zsJo3msOnrnyvSqpCblY-5" target="zsJo3msOnrnyvSqpCblY-13">
          <mxGeometry relative="1" as="geometry" />
        </mxCell>
        <mxCell id="zsJo3msOnrnyvSqpCblY-19" value="&amp;lt;&amp;lt;inclusão&amp;gt;&amp;gt;" style="edgeLabel;html=1;align=center;verticalAlign=middle;resizable=0;points=[];" vertex="1" connectable="0" parent="zsJo3msOnrnyvSqpCblY-18">
          <mxGeometry x="-0.3208" relative="1" as="geometry">
            <mxPoint as="offset" />
          </mxGeometry>
        </mxCell>
        <mxCell id="zsJo3msOnrnyvSqpCblY-5" value="Cadastro de administrador" style="ellipse;whiteSpace=wrap;html=1;" vertex="1" parent="1">
          <mxGeometry x="200" y="80" width="120" height="40" as="geometry" />
        </mxCell>
        <mxCell id="zsJo3msOnrnyvSqpCblY-6" value="Cadastro de funcionário" style="ellipse;whiteSpace=wrap;html=1;" vertex="1" parent="1">
          <mxGeometry x="200" y="640" width="120" height="40" as="geometry" />
        </mxCell>
        <mxCell id="zsJo3msOnrnyvSqpCblY-62" style="rounded=0;orthogonalLoop=1;jettySize=auto;html=1;exitX=1;exitY=0.5;exitDx=0;exitDy=0;entryX=0;entryY=0.5;entryDx=0;entryDy=0;dashed=1;" edge="1" parent="1" source="zsJo3msOnrnyvSqpCblY-13" target="zsJo3msOnrnyvSqpCblY-60">
          <mxGeometry relative="1" as="geometry" />
        </mxCell>
        <mxCell id="zsJo3msOnrnyvSqpCblY-63" value="&amp;lt;&amp;lt;inclusão&amp;gt;&amp;gt;" style="edgeLabel;html=1;align=center;verticalAlign=middle;resizable=0;points=[];" vertex="1" connectable="0" parent="zsJo3msOnrnyvSqpCblY-62">
          <mxGeometry x="-0.264" relative="1" as="geometry">
            <mxPoint as="offset" />
          </mxGeometry>
        </mxCell>
        <mxCell id="zsJo3msOnrnyvSqpCblY-13" value="login de administrador" style="ellipse;whiteSpace=wrap;html=1;" vertex="1" parent="1">
          <mxGeometry x="200" y="160" width="120" height="40" as="geometry" />
        </mxCell>
        <mxCell id="zsJo3msOnrnyvSqpCblY-61" style="rounded=0;orthogonalLoop=1;jettySize=auto;html=1;exitX=1;exitY=0.5;exitDx=0;exitDy=0;entryX=-0.013;entryY=0.636;entryDx=0;entryDy=0;dashed=1;entryPerimeter=0;" edge="1" parent="1" source="zsJo3msOnrnyvSqpCblY-14" target="zsJo3msOnrnyvSqpCblY-60">
          <mxGeometry relative="1" as="geometry" />
        </mxCell>
        <mxCell id="zsJo3msOnrnyvSqpCblY-65" value="&amp;lt;&amp;lt;inclusão&amp;gt;&amp;gt;" style="edgeLabel;html=1;align=center;verticalAlign=middle;resizable=0;points=[];" vertex="1" connectable="0" parent="zsJo3msOnrnyvSqpCblY-61">
          <mxGeometry x="-0.2856" y="-2" relative="1" as="geometry">
            <mxPoint x="-1" as="offset" />
          </mxGeometry>
        </mxCell>
        <mxCell id="zsJo3msOnrnyvSqpCblY-14" value="login de funcinário" style="ellipse;whiteSpace=wrap;html=1;" vertex="1" parent="1">
          <mxGeometry x="200" y="720" width="120" height="40" as="geometry" />
        </mxCell>
        <mxCell id="zsJo3msOnrnyvSqpCblY-20" style="edgeStyle=orthogonalEdgeStyle;rounded=0;orthogonalLoop=1;jettySize=auto;html=1;exitX=0.5;exitY=1;exitDx=0;exitDy=0;entryX=0.5;entryY=0;entryDx=0;entryDy=0;dashed=1;" edge="1" parent="1" source="zsJo3msOnrnyvSqpCblY-6" target="zsJo3msOnrnyvSqpCblY-14">
          <mxGeometry relative="1" as="geometry">
            <mxPoint x="259.71" y="710" as="sourcePoint" />
            <mxPoint x="259.71" y="750" as="targetPoint" />
          </mxGeometry>
        </mxCell>
        <mxCell id="zsJo3msOnrnyvSqpCblY-21" value="&amp;lt;&amp;lt;inclusão&amp;gt;&amp;gt;" style="edgeLabel;html=1;align=center;verticalAlign=middle;resizable=0;points=[];" vertex="1" connectable="0" parent="zsJo3msOnrnyvSqpCblY-20">
          <mxGeometry x="-0.3208" relative="1" as="geometry">
            <mxPoint as="offset" />
          </mxGeometry>
        </mxCell>
        <mxCell id="zsJo3msOnrnyvSqpCblY-67" style="edgeStyle=orthogonalEdgeStyle;rounded=0;orthogonalLoop=1;jettySize=auto;html=1;exitX=1;exitY=0.5;exitDx=0;exitDy=0;entryX=0;entryY=0.5;entryDx=0;entryDy=0;dashed=1;endArrow=none;startFill=0;endFill=1;startArrow=classic;" edge="1" parent="1" source="zsJo3msOnrnyvSqpCblY-22" target="zsJo3msOnrnyvSqpCblY-66">
          <mxGeometry relative="1" as="geometry" />
        </mxCell>
        <mxCell id="zsJo3msOnrnyvSqpCblY-68" value="&amp;lt;&amp;lt;extensão&amp;gt;&amp;gt;" style="edgeLabel;html=1;align=center;verticalAlign=middle;resizable=0;points=[];" vertex="1" connectable="0" parent="zsJo3msOnrnyvSqpCblY-67">
          <mxGeometry x="0.3799" y="-1" relative="1" as="geometry">
            <mxPoint as="offset" />
          </mxGeometry>
        </mxCell>
        <mxCell id="zsJo3msOnrnyvSqpCblY-22" value="cadastro de cardapío" style="ellipse;whiteSpace=wrap;html=1;" vertex="1" parent="1">
          <mxGeometry x="200" y="210" width="120" height="40" as="geometry" />
        </mxCell>
        <mxCell id="zsJo3msOnrnyvSqpCblY-23" style="rounded=0;orthogonalLoop=1;jettySize=auto;html=1;exitX=0.5;exitY=0.5;exitDx=0;exitDy=0;exitPerimeter=0;entryX=-0.004;entryY=0.374;entryDx=0;entryDy=0;entryPerimeter=0;startArrow=none;startFill=0;endArrow=none;" edge="1" parent="1" source="zsJo3msOnrnyvSqpCblY-1" target="zsJo3msOnrnyvSqpCblY-22">
          <mxGeometry relative="1" as="geometry" />
        </mxCell>
        <mxCell id="zsJo3msOnrnyvSqpCblY-24" value="cadastro de mesa" style="ellipse;whiteSpace=wrap;html=1;" vertex="1" parent="1">
          <mxGeometry x="200" y="260" width="120" height="40" as="geometry" />
        </mxCell>
        <mxCell id="zsJo3msOnrnyvSqpCblY-25" style="rounded=0;orthogonalLoop=1;jettySize=auto;html=1;exitX=0.5;exitY=0.5;exitDx=0;exitDy=0;exitPerimeter=0;entryX=0.001;entryY=0.362;entryDx=0;entryDy=0;entryPerimeter=0;endArrow=none;startFill=0;" edge="1" parent="1" source="zsJo3msOnrnyvSqpCblY-1" target="zsJo3msOnrnyvSqpCblY-24">
          <mxGeometry relative="1" as="geometry" />
        </mxCell>
        <mxCell id="zsJo3msOnrnyvSqpCblY-27" value="Aba cozinha" style="ellipse;whiteSpace=wrap;html=1;" vertex="1" parent="1">
          <mxGeometry x="200" y="430" width="120" height="40" as="geometry" />
        </mxCell>
        <mxCell id="zsJo3msOnrnyvSqpCblY-28" value="Aba garçom" style="ellipse;whiteSpace=wrap;html=1;" vertex="1" parent="1">
          <mxGeometry x="200" y="480" width="120" height="40" as="geometry" />
        </mxCell>
        <mxCell id="zsJo3msOnrnyvSqpCblY-58" style="edgeStyle=orthogonalEdgeStyle;rounded=0;orthogonalLoop=1;jettySize=auto;html=1;exitX=1;exitY=0.5;exitDx=0;exitDy=0;entryX=0;entryY=0.5;entryDx=0;entryDy=0;dashed=1;" edge="1" parent="1" source="zsJo3msOnrnyvSqpCblY-29" target="zsJo3msOnrnyvSqpCblY-57">
          <mxGeometry relative="1" as="geometry" />
        </mxCell>
        <mxCell id="zsJo3msOnrnyvSqpCblY-59" value="&amp;lt;&amp;lt;inclusão&amp;gt;&amp;gt;" style="edgeLabel;html=1;align=center;verticalAlign=middle;resizable=0;points=[];" vertex="1" connectable="0" parent="zsJo3msOnrnyvSqpCblY-58">
          <mxGeometry x="-0.017" relative="1" as="geometry">
            <mxPoint as="offset" />
          </mxGeometry>
        </mxCell>
        <mxCell id="zsJo3msOnrnyvSqpCblY-29" value="Aba pagamento" style="ellipse;whiteSpace=wrap;html=1;" vertex="1" parent="1">
          <mxGeometry x="200" y="560" width="120" height="40" as="geometry" />
        </mxCell>
        <mxCell id="zsJo3msOnrnyvSqpCblY-31" style="rounded=0;orthogonalLoop=1;jettySize=auto;html=1;exitX=0.5;exitY=0.5;exitDx=0;exitDy=0;exitPerimeter=0;entryX=0.015;entryY=0.63;entryDx=0;entryDy=0;endArrow=none;startFill=0;entryPerimeter=0;" edge="1" parent="1" source="zsJo3msOnrnyvSqpCblY-3" target="zsJo3msOnrnyvSqpCblY-28">
          <mxGeometry relative="1" as="geometry">
            <mxPoint x="150" y="720" as="sourcePoint" />
            <mxPoint x="265" y="510" as="targetPoint" />
          </mxGeometry>
        </mxCell>
        <mxCell id="zsJo3msOnrnyvSqpCblY-32" style="rounded=0;orthogonalLoop=1;jettySize=auto;html=1;exitX=0.5;exitY=0.5;exitDx=0;exitDy=0;exitPerimeter=0;entryX=0;entryY=0.5;entryDx=0;entryDy=0;endArrow=none;startFill=0;" edge="1" parent="1" source="zsJo3msOnrnyvSqpCblY-3" target="zsJo3msOnrnyvSqpCblY-29">
          <mxGeometry relative="1" as="geometry">
            <mxPoint x="150" y="840" as="sourcePoint" />
            <mxPoint x="265" y="630" as="targetPoint" />
          </mxGeometry>
        </mxCell>
        <mxCell id="zsJo3msOnrnyvSqpCblY-33" style="rounded=0;orthogonalLoop=1;jettySize=auto;html=1;exitX=0.5;exitY=0.5;exitDx=0;exitDy=0;exitPerimeter=0;entryX=0;entryY=0.5;entryDx=0;entryDy=0;endArrow=none;startFill=0;" edge="1" parent="1" source="zsJo3msOnrnyvSqpCblY-2" target="zsJo3msOnrnyvSqpCblY-27">
          <mxGeometry relative="1" as="geometry">
            <mxPoint x="140" y="920" as="sourcePoint" />
            <mxPoint x="255" y="710" as="targetPoint" />
          </mxGeometry>
        </mxCell>
        <mxCell id="zsJo3msOnrnyvSqpCblY-34" style="rounded=0;orthogonalLoop=1;jettySize=auto;html=1;exitX=0.5;exitY=0.5;exitDx=0;exitDy=0;exitPerimeter=0;entryX=0;entryY=0.5;entryDx=0;entryDy=0;endArrow=none;startFill=0;" edge="1" parent="1" source="zsJo3msOnrnyvSqpCblY-2" target="zsJo3msOnrnyvSqpCblY-28">
          <mxGeometry relative="1" as="geometry">
            <mxPoint x="170" y="790" as="sourcePoint" />
            <mxPoint x="285" y="580" as="targetPoint" />
          </mxGeometry>
        </mxCell>
        <mxCell id="zsJo3msOnrnyvSqpCblY-35" style="rounded=0;orthogonalLoop=1;jettySize=auto;html=1;exitX=0.5;exitY=0.5;exitDx=0;exitDy=0;exitPerimeter=0;entryX=0;entryY=0.5;entryDx=0;entryDy=0;endArrow=none;startFill=0;" edge="1" parent="1" source="zsJo3msOnrnyvSqpCblY-2" target="zsJo3msOnrnyvSqpCblY-29">
          <mxGeometry relative="1" as="geometry">
            <mxPoint x="170" y="940" as="sourcePoint" />
            <mxPoint x="285" y="730" as="targetPoint" />
          </mxGeometry>
        </mxCell>
        <mxCell id="zsJo3msOnrnyvSqpCblY-36" style="rounded=0;orthogonalLoop=1;jettySize=auto;html=1;exitX=0;exitY=0.5;exitDx=0;exitDy=0;entryX=0.5;entryY=0.5;entryDx=0;entryDy=0;endArrow=none;startFill=0;entryPerimeter=0;" edge="1" parent="1" source="zsJo3msOnrnyvSqpCblY-27" target="zsJo3msOnrnyvSqpCblY-1">
          <mxGeometry relative="1" as="geometry">
            <mxPoint x="60" y="600" as="sourcePoint" />
            <mxPoint x="175" y="390" as="targetPoint" />
          </mxGeometry>
        </mxCell>
        <mxCell id="zsJo3msOnrnyvSqpCblY-37" style="rounded=0;orthogonalLoop=1;jettySize=auto;html=1;exitX=0;exitY=0.5;exitDx=0;exitDy=0;entryX=0.5;entryY=0.5;entryDx=0;entryDy=0;endArrow=none;startFill=0;entryPerimeter=0;" edge="1" parent="1" source="zsJo3msOnrnyvSqpCblY-28" target="zsJo3msOnrnyvSqpCblY-1">
          <mxGeometry relative="1" as="geometry">
            <mxPoint x="40" y="510" as="sourcePoint" />
            <mxPoint x="155" y="300" as="targetPoint" />
          </mxGeometry>
        </mxCell>
        <mxCell id="zsJo3msOnrnyvSqpCblY-38" style="rounded=0;orthogonalLoop=1;jettySize=auto;html=1;exitX=0;exitY=0.5;exitDx=0;exitDy=0;entryX=0.5;entryY=0.5;entryDx=0;entryDy=0;endArrow=none;startFill=0;entryPerimeter=0;" edge="1" parent="1" source="zsJo3msOnrnyvSqpCblY-29" target="zsJo3msOnrnyvSqpCblY-1">
          <mxGeometry relative="1" as="geometry">
            <mxPoint x="180" y="550" as="sourcePoint" />
            <mxPoint x="295" y="340" as="targetPoint" />
          </mxGeometry>
        </mxCell>
        <mxCell id="zsJo3msOnrnyvSqpCblY-40" value="Sistemas de pagamento" style="ellipse;whiteSpace=wrap;html=1;" vertex="1" parent="1">
          <mxGeometry x="490" y="610" width="120" height="40" as="geometry" />
        </mxCell>
        <mxCell id="zsJo3msOnrnyvSqpCblY-41" style="rounded=0;orthogonalLoop=1;jettySize=auto;html=1;exitX=1;exitY=0.5;exitDx=0;exitDy=0;entryX=0;entryY=0.5;entryDx=0;entryDy=0;dashed=1;" edge="1" parent="1" source="zsJo3msOnrnyvSqpCblY-29" target="zsJo3msOnrnyvSqpCblY-40">
          <mxGeometry relative="1" as="geometry">
            <mxPoint x="320" y="570" as="sourcePoint" />
            <mxPoint x="400" y="470" as="targetPoint" />
          </mxGeometry>
        </mxCell>
        <mxCell id="zsJo3msOnrnyvSqpCblY-42" value="&amp;lt;&amp;lt;inclusão&amp;gt;&amp;gt;" style="edgeLabel;html=1;align=center;verticalAlign=middle;resizable=0;points=[];" vertex="1" connectable="0" parent="zsJo3msOnrnyvSqpCblY-41">
          <mxGeometry x="-0.3208" relative="1" as="geometry">
            <mxPoint as="offset" />
          </mxGeometry>
        </mxCell>
        <mxCell id="zsJo3msOnrnyvSqpCblY-43" value="login de funcinário" style="ellipse;whiteSpace=wrap;html=1;" vertex="1" parent="1">
          <mxGeometry x="200" y="780" width="120" height="40" as="geometry" />
        </mxCell>
        <mxCell id="zsJo3msOnrnyvSqpCblY-46" value="Status do pedido" style="ellipse;whiteSpace=wrap;html=1;" vertex="1" parent="1">
          <mxGeometry x="500" y="350" width="120" height="40" as="geometry" />
        </mxCell>
        <mxCell id="zsJo3msOnrnyvSqpCblY-47" style="rounded=0;orthogonalLoop=1;jettySize=auto;html=1;exitX=1.009;exitY=0.354;exitDx=0;exitDy=0;dashed=1;exitPerimeter=0;entryX=0;entryY=0.5;entryDx=0;entryDy=0;" edge="1" parent="1" source="zsJo3msOnrnyvSqpCblY-27" target="zsJo3msOnrnyvSqpCblY-46">
          <mxGeometry relative="1" as="geometry">
            <mxPoint x="340" y="460" as="sourcePoint" />
            <mxPoint x="350" y="360" as="targetPoint" />
          </mxGeometry>
        </mxCell>
        <mxCell id="zsJo3msOnrnyvSqpCblY-48" value="&amp;lt;&amp;lt;inclusão&amp;gt;&amp;gt;" style="edgeLabel;html=1;align=center;verticalAlign=middle;resizable=0;points=[];" vertex="1" connectable="0" parent="zsJo3msOnrnyvSqpCblY-47">
          <mxGeometry x="-0.3208" relative="1" as="geometry">
            <mxPoint as="offset" />
          </mxGeometry>
        </mxCell>
        <mxCell id="zsJo3msOnrnyvSqpCblY-49" value="Notificação de atraso" style="ellipse;whiteSpace=wrap;html=1;" vertex="1" parent="1">
          <mxGeometry x="500" y="400" width="120" height="40" as="geometry" />
        </mxCell>
        <mxCell id="zsJo3msOnrnyvSqpCblY-50" style="rounded=0;orthogonalLoop=1;jettySize=auto;html=1;dashed=1;entryX=0;entryY=0.5;entryDx=0;entryDy=0;exitX=1;exitY=0.5;exitDx=0;exitDy=0;" edge="1" parent="1" source="zsJo3msOnrnyvSqpCblY-27" target="zsJo3msOnrnyvSqpCblY-49">
          <mxGeometry relative="1" as="geometry">
            <mxPoint x="490" y="460" as="sourcePoint" />
            <mxPoint x="400" y="500" as="targetPoint" />
          </mxGeometry>
        </mxCell>
        <mxCell id="zsJo3msOnrnyvSqpCblY-51" value="&amp;lt;&amp;lt;inclusão&amp;gt;&amp;gt;" style="edgeLabel;html=1;align=center;verticalAlign=middle;resizable=0;points=[];" vertex="1" connectable="0" parent="zsJo3msOnrnyvSqpCblY-50">
          <mxGeometry x="-0.3208" relative="1" as="geometry">
            <mxPoint as="offset" />
          </mxGeometry>
        </mxCell>
        <mxCell id="zsJo3msOnrnyvSqpCblY-52" value="Retirada de pedidos" style="ellipse;whiteSpace=wrap;html=1;" vertex="1" parent="1">
          <mxGeometry x="500" y="450" width="120" height="40" as="geometry" />
        </mxCell>
        <mxCell id="zsJo3msOnrnyvSqpCblY-53" style="rounded=0;orthogonalLoop=1;jettySize=auto;html=1;exitX=1.009;exitY=0.64;exitDx=0;exitDy=0;dashed=1;exitPerimeter=0;entryX=0;entryY=0.5;entryDx=0;entryDy=0;" edge="1" parent="1" source="zsJo3msOnrnyvSqpCblY-27" target="zsJo3msOnrnyvSqpCblY-52">
          <mxGeometry relative="1" as="geometry">
            <mxPoint x="671" y="450" as="sourcePoint" />
            <mxPoint x="340" y="480" as="targetPoint" />
          </mxGeometry>
        </mxCell>
        <mxCell id="zsJo3msOnrnyvSqpCblY-54" value="&amp;lt;&amp;lt;inclusão&amp;gt;&amp;gt;" style="edgeLabel;html=1;align=center;verticalAlign=middle;resizable=0;points=[];" vertex="1" connectable="0" parent="zsJo3msOnrnyvSqpCblY-53">
          <mxGeometry x="-0.3208" relative="1" as="geometry">
            <mxPoint as="offset" />
          </mxGeometry>
        </mxCell>
        <mxCell id="zsJo3msOnrnyvSqpCblY-55" value="Comanda fechada" style="ellipse;whiteSpace=wrap;html=1;" vertex="1" parent="1">
          <mxGeometry x="200" y="310" width="120" height="40" as="geometry" />
        </mxCell>
        <mxCell id="zsJo3msOnrnyvSqpCblY-57" value="Pagamento com sucesso" style="ellipse;whiteSpace=wrap;html=1;" vertex="1" parent="1">
          <mxGeometry x="490" y="560" width="120" height="40" as="geometry" />
        </mxCell>
        <mxCell id="zsJo3msOnrnyvSqpCblY-60" value="Segurança de dados" style="ellipse;whiteSpace=wrap;html=1;" vertex="1" parent="1">
          <mxGeometry x="980" y="510" width="120" height="60" as="geometry" />
        </mxCell>
        <mxCell id="zsJo3msOnrnyvSqpCblY-66" value="backup" style="ellipse;whiteSpace=wrap;html=1;" vertex="1" parent="1">
          <mxGeometry x="550" y="210" width="120" height="40" as="geometry" />
        </mxCell>
        <mxCell id="zsJo3msOnrnyvSqpCblY-71" value="&lt;font style=&quot;font-size: 14px;&quot;&gt;App&amp;nbsp; comanda inteligente&lt;/font&gt;" style="text;html=1;align=center;verticalAlign=middle;whiteSpace=wrap;rounded=0;" vertex="1" parent="1">
          <mxGeometry x="210" y="20" width="230" height="30" as="geometry" />
        </mxCell>
      </root>
    </mxGraphModel>
  </diagram>
</mxfile>
